<?xml version="1.0" encoding="UTF-8" standalone="no"?>
<!DOCTYPE svg PUBLIC "-//W3C//DTD SVG 20010904//EN"
"http://www.w3.org/TR/2001/REC-SVG-20010904/DTD/svg10.dtd">
<!-- Created with Sodipodi ("http://www.sodipodi.com/") -->
<svg
   id="svg548"
   sodipodi:version="0.32"
   width="400pt"
   height="400pt"
   sodipodi:docbase="/var/www/html/svg_gallery/svg/office"
   sodipodi:docname="crayon.svg"
   inkscape:version="0.38.1"
   xmlns="http://www.w3.org/2000/svg"
   xmlns:inkscape="http://www.inkscape.org/namespaces/inkscape"
   xmlns:sodipodi="http://sodipodi.sourceforge.net/DTD/sodipodi-0.dtd"
   xmlns:xlink="http://www.w3.org/1999/xlink">
  <defs
     id="defs550">
    <linearGradient
       id="linearGradient562">
      <stop
         style="stop-color:#de9500;stop-opacity:1;"
         offset="0.000000"
         id="stop563" />
      <stop
         style="stop-color:#ffff0f;stop-opacity:1;"
         offset="1.000000"
         id="stop564" />
    </linearGradient>
    <linearGradient
       id="linearGradient558">
      <stop
         style="stop-color:#000;stop-opacity:1;"
         offset="0"
         id="stop559" />
      <stop
         style="stop-color:#fff;stop-opacity:1;"
         offset="1"
         id="stop560" />
    </linearGradient>
    <linearGradient
       xlink:href="#linearGradient562"
       id="linearGradient561"
       x1="0.61486840"
       y1="0.53906602"
       x2="0.25000009"
       y2="0.32031256"
       gradientUnits="objectBoundingBox"
       spreadMethod="reflect" />
  </defs>
  <sodipodi:namedview
     id="base"
     inkscape:zoom="1.1172636"
     inkscape:cx="200.00002"
     inkscape:cy="199.99998"
     inkscape:window-width="827"
     inkscape:window-height="711"
     inkscape:window-x="0"
     inkscape:window-y="24" />
  <g
     id="g851">
    <path
       style="fill:#cca89d;fill-rule:evenodd;stroke:#000000;stroke-width:10.000000;stroke-linejoin:round;stroke-dasharray:none;"
       d="M 99.8788 380.676 L 76.014 482.322 L 175.741 411.612 C 175.741 411.612 167.054 351.508 99.8788 380.676 z "
       id="path554"
       sodipodi:nodetypes="cccc" />
    <path
       style="fill:#c96400;fill-rule:evenodd;stroke:#000000;stroke-width:10.000000;stroke-linejoin:round;stroke-dasharray:none;"
       d="M 100.763 380.676 L 325.269 62.4776 C 325.269 62.4776 346.482 35.9611 370.347 50.9871 C 377.419 52.7549 375.651 50.9872 389.793 61.5937 C 393.328 64.2454 395.096 85.4586 395.096 85.4586 C 395.096 85.4586 174.125 411.612 174.125 412.496 C 174.125 413.379 170.589 393.05 151.144 382.443 C 133.466 371.837 101.647 381.56 100.763 380.676 z "
       id="path553"
       sodipodi:nodetypes="cccccccc" />
    <path
       style="fill-rule:evenodd;stroke:#000000;stroke-width:1.0000000pt;"
       d="M 75.1301 483.206 L 83.0851 451.386 C 83.0851 450.502 93.6917 450.502 97.2272 454.922 C 100.763 455.806 101.647 462.877 101.647 462.877 L 75.1301 483.206 z "
       id="path555"
       sodipodi:nodetypes="ccccc" />
    <path
       style="fill:#fc64e3;fill-rule:evenodd;stroke:#000000;stroke-width:10.000000;stroke-linejoin:round;stroke-dasharray:none;"
       d="M 315.547 74.852 L 358.857 22.7029 C 358.857 22.7029 377.418 3.25745 395.98 12.9802 C 414.541 22.7029 405.702 17.3995 414.542 23.5867 C 422.496 35.9612 411.89 58.9421 411.006 58.9421 C 410.122 58.9421 374.767 117.279 374.767 117.279 C 374.767 117.279 383.605 106.672 368.579 98.7169 C 351.786 76.6198 314.663 74.852 315.547 74.852 z "
       id="path556"
       sodipodi:nodetypes="cccccccc" />
    <path
       style="fill:url(#linearGradient561);fill-rule:evenodd;stroke:#000000;stroke-width:10.000000;stroke-linejoin:round;stroke-dasharray:none;"
       d="M 305.824 87.2263 C 304.94 87.2263 342.063 39.4967 342.063 39.4967 C 342.063 39.4967 357.089 37.7288 370.347 41.2644 C 385.374 47.4516 379.186 43.0322 389.793 50.9872 C 399.515 58.9421 401.283 77.5037 401.283 77.5037 L 372.999 121.698 C 372.999 121.698 373.883 112.859 365.044 103.137 C 350.902 91.6457 336.759 89.878 327.921 86.3424 C 315.546 84.5747 304.94 88.1102 305.824 87.2263 z "
       id="path557"
       sodipodi:nodetypes="ccccccccc" />
    <path
       style="fill:#ffffff;fill-rule:evenodd;stroke-width:1.0000000pt;"
       d="M 76.875000,481.74380 C 76.875000,480.49380 83.750000,454.24380 85.625000,454.24380 C 87.500000,454.24380 93.750000,455.49380 93.750000,457.36880 C 83.125000,463.61880 78.750000,479.86880 76.875000,481.74380 z "
       id="path566"
       sodipodi:nodetypes="cccc" />
    <path
       style="fill:#ffffff;fill-opacity:0.50370401;fill-rule:evenodd;stroke-width:1.0000000pt;"
       d="M 120.02744,365.52198 C 137.78254,337.48098 349.27360,35.824050 355.54050,31.669830 C 443.26890,-4.6795151 181.64854,278.28298 120.02744,365.52198 z "
       id="path564"
       sodipodi:nodetypes="ccc" />
    <path
       style="fill:#ffffff;fill-opacity:0.50196099;fill-rule:evenodd;stroke-width:1.0000000pt;"
       d="M 91.540315,448.81861 C 91.540315,446.27461 99.478205,403.57322 104.56480,389.15822 C 106.26080,389.15822 135.66700,376.16741 144.99400,391.43141 C 111.92600,396.51841 93.236215,442.03561 91.540315,448.81861 z "
       id="path565"
       sodipodi:nodetypes="cccc" />
    <path
       style="fill-opacity:0.24999996;fill-rule:evenodd;stroke-width:1.0000000pt;"
       d="M 394.284 17.5322 C 394.284 17.5322 413.786 21.7719 413.786 27.7073 C 418.873 44.6657 409.546 53.9928 403.611 64.1679 C 405.307 48.0574 408.699 40.4262 394.284 17.5322 z "
       id="path567"
       sodipodi:nodetypes="cccc" />
  </g>

  <rdf:RDF 
   xmlns="http://web.resource.org/cc/"
   xmlns:dc="http://purl.org/dc/elements/1.1/"
   xmlns:rdf="http://www.w3.org/1999/02/22-rdf-syntax-ns#">
  <Work rdf:about="">
    <dc:title>Clipart by Nicu Buculei - book_01</dc:title>
    <dc:rights>
       <Agent>
         <dc:title>Nicu Buculei</dc:title>
       </Agent>
    </dc:rights>
    <dc:type rdf:resource="http://purl.org/dc/dcmitype/StillImage" />
    <license rdf:resource="http://web.resource.org/cc/PublicDomain" />
  </Work>
   
  <License rdf:about="http://web.resource.org/cc/PublicDomain">
     <permits rdf:resource="http://web.resource.org/cc/Reproduction" />
     <permits rdf:resource="http://web.resource.org/cc/Distribution" />
     <permits rdf:resource="http://web.resource.org/cc/DerivativeWorks" />
  </License>

</rdf:RDF>
</svg>
