<?xml version="1.0" encoding="UTF-8" standalone="no"?>
<!DOCTYPE svg PUBLIC "-//W3C//DTD SVG 1.0//EN"
 "http://www.w3.org/TR/2001/REC-SVG-20010904/DTD/svg10.dtd" [
 <!ATTLIST svg xmlns:xlink CDATA #FIXED "http://www.w3.org/1999/xlink">
]>
<!-- Generated by dot version 2.8 (Fri Nov 17 20:26:27 UTC 2006)
     For user: (daniel) Daniel de Kok,,, -->
<!-- Title: structs Pages: 1 -->
<svg width="190pt" height="260pt"
 viewBox = "0 0 190 260"
 xmlns="http://www.w3.org/2000/svg" xmlns:xlink="http://www.w3.org/1999/xlink">
<g id="graph0" class="graph" style="font-family:Times-Roman;font-size:14.00;">
<title>structs</title>
<polygon style="fill:white;stroke:white;" points="-2,262 -2,-2 192,-2 192,262 -2,262"/>
<!-- started -->
<g id="node1" class="node"><title>started</title>
<ellipse style="fill:none;stroke:black;" cx="106" cy="22" rx="33" ry="18"/>
<text text-anchor="middle" x="106" y="27">Started</text>
</g>
<!-- ready -->
<g id="node2" class="node"><title>ready</title>
<ellipse style="fill:none;stroke:black;" cx="106" cy="94" rx="31" ry="18"/>
<text text-anchor="middle" x="106" y="99">Ready</text>
</g>
<!-- started&#45;&gt;ready -->
<g id="edge10" class="edge"><title>started&#45;&gt;ready</title>
<path style="fill:none;stroke:black;" d="M106,40C106,48 106,57 106,66"/>
<polygon style="fill:black;stroke:black;" points="110,66 106,76 103,66 110,66"/>
</g>
<!-- running -->
<g id="node3" class="node"><title>running</title>
<ellipse style="fill:none;stroke:black;" cx="106" cy="166" rx="37" ry="18"/>
<text text-anchor="middle" x="106" y="171">Running</text>
</g>
<!-- ready&#45;&gt;running -->
<g id="edge2" class="edge"><title>ready&#45;&gt;running</title>
<path style="fill:none;stroke:black;" d="M100,112C99,120 99,129 99,138"/>
<polygon style="fill:black;stroke:black;" points="102,138 100,148 96,138 102,138"/>
</g>
<!-- running&#45;&gt;ready -->
<g id="edge4" class="edge"><title>running&#45;&gt;ready</title>
<path style="fill:none;stroke:black;" d="M112,148C113,140 113,131 113,122"/>
<polygon style="fill:black;stroke:black;" points="110,122 112,112 116,122 110,122"/>
</g>
<!-- blocked -->
<g id="node4" class="node"><title>blocked</title>
<ellipse style="fill:none;stroke:black;" cx="41" cy="238" rx="37" ry="18"/>
<text text-anchor="middle" x="41" y="243">Blocked</text>
</g>
<!-- running&#45;&gt;blocked -->
<g id="edge6" class="edge"><title>running&#45;&gt;blocked</title>
<path style="fill:none;stroke:black;" d="M91,183C83,192 73,204 63,214"/>
<polygon style="fill:black;stroke:black;" points="66,216 56,221 61,211 66,216"/>
</g>
<!-- terminated -->
<g id="node9" class="node"><title>terminated</title>
<ellipse style="fill:none;stroke:black;" cx="141" cy="238" rx="45" ry="18"/>
<text text-anchor="middle" x="141" y="243">Terminated</text>
</g>
<!-- running&#45;&gt;terminated -->
<g id="edge12" class="edge"><title>running&#45;&gt;terminated</title>
<path style="fill:none;stroke:black;" d="M115,184C119,192 123,202 128,211"/>
<polygon style="fill:black;stroke:black;" points="131,209 132,220 125,212 131,209"/>
</g>
<!-- blocked&#45;&gt;ready -->
<g id="edge8" class="edge"><title>blocked&#45;&gt;ready</title>
<path style="fill:none;stroke:black;" d="M42,220C44,201 48,171 60,148 65,137 74,126 82,117"/>
<polygon style="fill:black;stroke:black;" points="79,115 89,110 84,120 79,115"/>
</g>
</g>
</svg>
