<?xml version="1.0" encoding="UTF-8" standalone="no"?>
<!DOCTYPE svg PUBLIC "-//W3C//DTD SVG 1.0//EN"
 "http://www.w3.org/TR/2001/REC-SVG-20010904/DTD/svg10.dtd" [
 <!ATTLIST svg xmlns:xlink CDATA #FIXED "http://www.w3.org/1999/xlink">
]>
<!-- Generated by dot version 2.8 (Fri Feb  3 22:39:55 UTC 2006)
     For user: (daniel)  -->
<!-- Title: structs Pages: 1 -->
<svg width="419pt" height="210pt"
 viewBox = "0 0 419 210"
 xmlns="http://www.w3.org/2000/svg" xmlns:xlink="http://www.w3.org/1999/xlink">
<g id="graph0" class="graph" style="font-family:Times-Roman;font-size:14.00;">
<title>structs</title>
<polygon style="fill:white;stroke:white;" points="-2,212 -2,-2 421,-2 421,212 -2,212"/>
<g id="graph2" class="cluster"><title>cluster0</title>
<polygon style="fill:none;stroke:black;stroke-dasharray:5,2;" points="12,166 125,166 125,12 12,12 12,166"/>
<text text-anchor="middle" x="69" y="29">Directory entries</text>
</g>
<g id="graph3" class="cluster"><title>cluster1</title>
<polygon style="fill:none;stroke:black;stroke-dasharray:5,2;" points="183,168 265,168 265,38 183,38 183,168"/>
<text text-anchor="middle" x="224" y="55">inodes</text>
</g>
<g id="graph4" class="cluster"><title>cluster2</title>
<polygon style="fill:none;stroke:black;stroke-dasharray:5,2;" points="323,168 407,168 407,38 323,38 323,168"/>
<text text-anchor="middle" x="365" y="55">Data blocks</text>
</g>
<!-- dirent1 -->
<g id="node2" class="node"><title>dirent1</title>
<polygon style="fill:none;stroke:black;" points="35,92 101,92 101,44 35,44 35,92"/>
<text text-anchor="middle" x="68" y="61">filename</text>
<polyline style="fill:none;stroke:black;" points="35,68 101,68 "/>
<text text-anchor="middle" x="68" y="85">2737963</text>
</g>
<!-- inode1 -->
<g id="node5" class="node"><title>inode1</title>
<polygon style="fill:none;stroke:black;" points="192,106 256,106 256,70 192,70 192,106"/>
<text text-anchor="middle" x="224" y="93">2737963</text>
</g>
<!-- dirent1&#45;&gt;inode1 -->
<g id="edge5" class="edge"><title>dirent1&#45;&gt;inode1</title>
<path style="fill:none;stroke:black;" d="M101,82C125,83 156,85 182,86"/>
<polygon style="fill:black;stroke:black;" points="182,82 192,86 182,89 182,82"/>
</g>
<!-- dirent2 -->
<g id="node3" class="node"><title>dirent2</title>
<polygon style="fill:none;stroke:black;" points="36,158 101,158 101,110 36,110 36,158"/>
<text text-anchor="middle" x="68" y="127">symlink</text>
<polyline style="fill:none;stroke:black;" points="36,134 101,134 "/>
<text text-anchor="middle" x="68" y="151">2739293</text>
</g>
<!-- inode2 -->
<g id="node6" class="node"><title>inode2</title>
<polygon style="fill:none;stroke:black;" points="192,160 257,160 257,124 192,124 192,160"/>
<text text-anchor="middle" x="224" y="147">2739293</text>
</g>
<!-- dirent2&#45;&gt;inode2 -->
<g id="edge8" class="edge"><title>dirent2&#45;&gt;inode2</title>
<path style="fill:none;stroke:black;" d="M101,145C125,144 156,143 182,143"/>
<polygon style="fill:black;stroke:black;" points="182,139 192,143 182,146 182,139"/>
</g>
<!-- block1 -->
<g id="node8" class="node"><title>block1</title>
<polygon style="fill:none;stroke:black;" points="338,106 392,106 392,70 338,70 338,106"/>
<text text-anchor="middle" x="365" y="93">data</text>
</g>
<!-- inode1&#45;&gt;block1 -->
<g id="edge6" class="edge"><title>inode1&#45;&gt;block1</title>
<path style="fill:none;stroke:black;" d="M256,88C277,88 306,88 328,88"/>
<polygon style="fill:black;stroke:black;" points="328,84 338,88 328,91 328,84"/>
</g>
<!-- block2 -->
<g id="node9" class="node"><title>block2</title>
<polygon style="fill:none;stroke:black;" points="338,160 392,160 392,124 338,124 338,160"/>
<text text-anchor="middle" x="365" y="147">data</text>
</g>
<!-- inode2&#45;&gt;block2 -->
<g id="edge9" class="edge"><title>inode2&#45;&gt;block2</title>
<path style="fill:none;stroke:black;" d="M257,142C278,142 306,142 328,142"/>
<polygon style="fill:black;stroke:black;" points="328,138 338,142 328,145 328,138"/>
</g>
<!-- block2&#45;&gt;dirent1 -->
<g id="edge11" class="edge"><title>block2&#45;&gt;dirent1</title>
<path style="fill:none;stroke:black;" d="M338,156C301,174 233,198 183,172 130,144 161,66 111,57"/>
<polygon style="fill:black;stroke:black;" points="111,60 101,56 111,54 111,60"/>
</g>
</g>
</svg>
