<?xml version="1.0" encoding="UTF-8" standalone="no"?>
<!DOCTYPE svg PUBLIC "-//W3C//DTD SVG 1.0//EN"
 "http://www.w3.org/TR/2001/REC-SVG-20010904/DTD/svg10.dtd" [
 <!ATTLIST svg xmlns:xlink CDATA #FIXED "http://www.w3.org/1999/xlink">
]>
<!-- Generated by dot version 2.8 (Fri Feb  3 22:39:55 UTC 2006)
     For user: (daniel)  -->
<!-- Title: structs Pages: 1 -->
<svg width="259pt" height="186pt"
 viewBox = "0 0 259 186"
 xmlns="http://www.w3.org/2000/svg" xmlns:xlink="http://www.w3.org/1999/xlink">
<g id="graph0" class="graph" style="font-family:Times-Roman;font-size:14.00;">
<title>structs</title>
<polygon style="fill:white;stroke:white;" points="-2,188 -2,-2 261,-2 261,188 -2,188"/>
<g id="graph2" class="cluster"><title>cluster0</title>
<polygon style="fill:none;stroke:black;stroke-dasharray:5,2;" points="12,166 125,166 125,12 12,12 12,166"/>
<text text-anchor="middle" x="69" y="29">Directory entries</text>
</g>
<!-- dirent1 -->
<g id="node2" class="node"><title>dirent1</title>
<polygon style="fill:none;stroke:black;" points="32,92 105,92 105,44 32,44 32,92"/>
<text text-anchor="middle" x="68" y="61">filename1</text>
<polyline style="fill:none;stroke:black;" points="32,68 105,68 "/>
<text text-anchor="middle" x="68" y="85">2737963</text>
</g>
<!-- inode -->
<g id="node4" class="node"><title>inode</title>
<polygon style="fill:none;stroke:black;" points="155,133 255,133 255,85 155,85 155,133"/>
<text text-anchor="middle" x="205" y="102">inode 2737963</text>
<polyline style="fill:none;stroke:black;" points="155,109 255,109 "/>
<text text-anchor="middle" x="205" y="126">links_count 2</text>
</g>
<!-- dirent1&#45;&gt;inode -->
<g id="edge3" class="edge"><title>dirent1&#45;&gt;inode</title>
<path style="fill:none;stroke:black;" d="M105,88C117,90 131,93 145,97"/>
<polygon style="fill:black;stroke:black;" points="146,94 155,99 145,100 146,94"/>
</g>
<!-- dirent2 -->
<g id="node3" class="node"><title>dirent2</title>
<polygon style="fill:none;stroke:black;" points="32,158 105,158 105,110 32,110 32,158"/>
<text text-anchor="middle" x="68" y="127">filename2</text>
<polyline style="fill:none;stroke:black;" points="32,134 105,134 "/>
<text text-anchor="middle" x="68" y="151">2737963</text>
</g>
<!-- dirent2&#45;&gt;inode -->
<g id="edge5" class="edge"><title>dirent2&#45;&gt;inode</title>
<path style="fill:none;stroke:black;" d="M105,136C117,133 131,129 145,125"/>
<polygon style="fill:black;stroke:black;" points="145,122 155,123 146,128 145,122"/>
</g>
</g>
</svg>
